<?xml version="1.0" encoding="UTF-8" standalone="no"?>
<svg
   id="Layer_1"
   data-name="Layer 1"
   viewBox="0 0 125 98.004321"
   version="1.1"
   sodipodi:docname="naic.svg"
   inkscape:version="1.4.2 (2aeb623e1d, 2025-05-12)"
   width="125"
   height="98.004318"
   xmlns:inkscape="http://www.inkscape.org/namespaces/inkscape"
   xmlns:sodipodi="http://sodipodi.sourceforge.net/DTD/sodipodi-0.dtd"
   xmlns="http://www.w3.org/2000/svg"
   xmlns:svg="http://www.w3.org/2000/svg">
  <sodipodi:namedview
     id="namedview17"
     pagecolor="#505050"
     bordercolor="#eeeeee"
     borderopacity="1"
     inkscape:showpageshadow="0"
     inkscape:pageopacity="0"
     inkscape:pagecheckerboard="0"
     inkscape:deskcolor="#505050"
     inkscape:zoom="0.63281811"
     inkscape:cx="-143.80119"
     inkscape:cy="338.95996"
     inkscape:window-width="1854"
     inkscape:window-height="1011"
     inkscape:window-x="66"
     inkscape:window-y="32"
     inkscape:window-maximized="1"
     inkscape:current-layer="Layer_1" />
  <defs
     id="defs1">
    <style
       id="style1">
      .cls-1 {
        fill: #fff;
        stroke-width: 0px;
      }
    </style>
  </defs>
  <g
     id="g16"
     transform="matrix(0.22268138,0,0,0.22268138,-0.46095046,-1.1490359)">
    <path
       class="cls-1"
       d="M 31.81,252.54 21.53,233.49 h -0.37 l -0.15,71.33 -10.07,-0.02 0.18,-85.7 11.91,0.03 31.2,52.37 10.27,19.05 h 0.37 c 0,0 0.15,-71.33 0.15,-71.33 l 10.07,0.02 -0.18,85.7 L 63,304.92 31.8,252.55 Z"
       id="path1" />
    <path
       class="cls-1"
       d="m 116.54,306.49 c -4.26,0 -8.14,-0.8 -11.66,-2.36 -3.52,-1.56 -6.52,-3.8 -9.01,-6.71 -2.49,-2.91 -4.43,-6.39 -5.81,-10.45 -1.38,-4.06 -2.07,-8.62 -2.06,-13.69 0.01,-4.99 0.72,-9.53 2.12,-13.62 1.4,-4.09 3.35,-7.58 5.85,-10.49 2.5,-2.9 5.52,-5.12 9.04,-6.67 3.52,-1.55 7.41,-2.32 11.67,-2.31 4.26,0.01 8.12,0.8 11.6,2.36 3.48,1.56 6.48,3.8 9.01,6.71 2.53,2.91 4.49,6.42 5.87,10.51 1.38,4.1 2.07,8.64 2.06,13.63 -0.01,5.08 -0.72,9.64 -2.12,13.69 -1.4,4.05 -3.37,7.52 -5.91,10.42 -2.54,2.9 -5.56,5.13 -9.04,6.67 -3.48,1.55 -7.35,2.32 -11.61,2.31 z m 0.02,-8.72 c 5.32,0.01 9.66,-1.62 13.02,-4.88 3.36,-3.27 5.05,-8.26 5.07,-14.97 l 0.02,-9.09 c 0.01,-6.71 -1.65,-11.71 -5,-14.99 -3.35,-3.28 -7.68,-4.92 -13,-4.94 -5.32,-0.02 -9.66,1.62 -13.02,4.88 -3.37,3.27 -5.05,8.26 -5.07,14.97 l -0.02,9.09 c -0.01,6.71 1.65,11.71 5,14.99 3.35,3.28 7.68,4.93 13.01,4.94 z"
       id="path2" />
    <path
       class="cls-1"
       d="m 156.68,305.1 0.13,-63.35 9.82,0.02 -0.02,11.67 h 0.61 c 1.15,-3.02 3.2,-5.72 6.16,-8.09 2.95,-2.37 7.01,-3.55 12.16,-3.54 h 3.81 c 0,0 -0.02,9.83 -0.02,9.83 h -5.77 c -5.32,-0.02 -9.48,0.97 -12.47,2.97 -2.99,2 -4.49,4.51 -4.5,7.54 l -0.09,42.97 z"
       id="path3" />
    <path
       class="cls-1"
       d="m 197.11,241.83 9.57,0.02 6.7,27.39 6.69,27.76 h 0.25 l 7.79,-27.73 8.04,-27.36 8.72,0.02 8.17,27.4 7.8,27.77 h 0.25 l 6.57,-27.74 6.93,-27.36 9.21,0.02 -16.95,63.32 -12.15,-0.02 -8.77,-30.47 -5.49,-19.29 h -0.25 c 0,0 -5.44,19.26 -5.44,19.26 l -8.9,30.43 -11.91,-0.02 -16.81,-63.39 z"
       id="path4" />
    <path
       class="cls-1"
       d="m 318.51,306.92 c -4.34,0 -8.25,-0.8 -11.72,-2.36 -3.48,-1.56 -6.46,-3.8 -8.95,-6.71 -2.49,-2.91 -4.41,-6.39 -5.75,-10.45 -1.34,-4.06 -2.01,-8.62 -2,-13.7 0,-4.99 0.7,-9.53 2.05,-13.62 1.35,-4.09 3.29,-7.58 5.79,-10.49 2.5,-2.9 5.49,-5.13 8.97,-6.67 3.48,-1.54 7.39,-2.32 11.73,-2.31 4.25,0 8.06,0.79 11.41,2.35 3.35,1.56 6.21,3.7 8.58,6.44 2.37,2.74 4.18,5.98 5.44,9.74 1.26,3.75 1.89,7.87 1.88,12.36 v 4.65 c 0,0 -45.56,-0.1 -45.56,-0.1 V 279 c -0.01,2.7 0.41,5.22 1.26,7.55 0.85,2.34 2.08,4.36 3.67,6.08 1.59,1.72 3.56,3.08 5.88,4.06 2.33,0.99 4.97,1.48 7.92,1.49 4.01,0 7.51,-0.93 10.5,-2.8 2.99,-1.88 5.31,-4.57 6.95,-8.09 l 6.99,5.08 c -2.06,4.36 -5.25,7.88 -9.6,10.55 -4.35,2.66 -9.51,3.99 -15.48,3.98 z m 0.12,-58.07 c -2.7,0 -5.16,0.46 -7.37,1.39 -2.21,0.93 -4.12,2.25 -5.72,3.95 -1.6,1.71 -2.85,3.72 -3.76,6.03 -0.91,2.32 -1.36,4.86 -1.37,7.63 v 0.85 c 0,0 34.99,0.07 34.99,0.07 v -1.34 c 0.01,-5.61 -1.51,-10.11 -4.57,-13.49 -3.06,-3.38 -7.13,-5.08 -12.21,-5.09 z"
       id="path5" />
    <path
       class="cls-1"
       d="m 412.73,312.7 c -0.01,6.53 -2.58,11.31 -7.7,14.36 -5.12,3.05 -12.8,4.56 -23.03,4.54 -9.9,-0.02 -17.02,-1.39 -21.35,-4.09 -4.33,-2.71 -6.49,-6.56 -6.48,-11.54 0,-3.44 0.91,-6.11 2.72,-8.03 1.8,-1.92 4.26,-3.32 7.37,-4.22 v -1.35 c -3.76,-1.8 -5.63,-4.74 -5.62,-8.81 0,-3.18 1.03,-5.6 3.08,-7.27 2.05,-1.67 4.67,-2.9 7.87,-3.71 v -0.49 c -3.76,-1.81 -6.68,-4.41 -8.76,-7.78 -2.08,-3.37 -3.12,-7.27 -3.11,-11.71 0,-3.2 0.59,-6.16 1.74,-8.86 1.15,-2.7 2.77,-5.02 4.86,-6.95 2.09,-1.93 4.59,-3.42 7.5,-4.48 2.9,-1.06 6.16,-1.59 9.76,-1.58 4.5,0 8.51,0.84 12.03,2.48 v -1.11 c 0,-2.48 0.58,-4.54 1.73,-6.15 1.15,-1.62 3.03,-2.43 5.65,-2.42 l 9.45,0.02 -0.02,8.72 -12.03,-0.03 v 4.06 c 2.28,1.98 4.05,4.34 5.31,7.09 1.26,2.75 1.89,5.85 1.89,9.3 0,3.2 -0.59,6.15 -1.74,8.86 -1.15,2.71 -2.77,5.02 -4.86,6.95 -2.09,1.92 -4.61,3.42 -7.56,4.48 -2.95,1.06 -6.23,1.59 -9.83,1.58 -2.05,0 -4.09,-0.21 -6.14,-0.63 -2.13,0.57 -4.06,1.4 -5.78,2.5 -1.72,1.1 -2.58,2.63 -2.59,4.6 0,1.89 0.89,3.15 2.69,3.81 1.8,0.66 4.13,0.99 7,1 l 13.51,0.03 c 7.86,0.02 13.56,1.52 17.12,4.5 3.56,2.99 5.33,7.09 5.31,12.31 z m -9.21,0.65 c 0,-2.54 -0.95,-4.57 -2.87,-6.08 -1.92,-1.52 -5.34,-2.28 -10.25,-2.29 l -21.12,-0.04 c -3.93,1.79 -5.9,4.66 -5.91,8.58 0,2.78 1.03,5.16 3.12,7.13 2.08,1.97 5.62,2.96 10.61,2.97 l 9.09,0.02 c 5.48,0.01 9.74,-0.84 12.77,-2.55 3.03,-1.71 4.55,-4.29 4.56,-7.72 z m -21.9,-36.63 c 4.18,0 7.49,-0.99 9.95,-3 2.46,-2.01 3.69,-5.11 3.7,-9.3 v -3.45 c 0.02,-4.19 -1.2,-7.3 -3.66,-9.32 -2.45,-2.02 -5.76,-3.04 -9.94,-3.04 -4.18,0 -7.49,0.99 -9.95,3 -2.46,2.01 -3.69,5.11 -3.7,9.3 v 3.45 c -0.02,4.19 1.2,7.3 3.65,9.32 2.45,2.02 5.76,3.03 9.94,3.04 z"
       id="path6" />
    <path
       class="cls-1"
       d="m 427.89,227.46 c -2.13,0 -3.66,-0.52 -4.6,-1.54 -0.94,-1.02 -1.41,-2.36 -1.4,-3.99 v -1.6 c 0,-1.64 0.48,-2.96 1.42,-3.99 0.94,-1.02 2.48,-1.53 4.61,-1.53 2.13,0 3.66,0.52 4.6,1.54 0.94,1.03 1.41,2.36 1.4,4 v 1.59 c 0,1.64 -0.48,2.97 -1.42,3.99 -0.94,1.02 -2.48,1.53 -4.61,1.53 z m -4.94,14.85 9.82,0.02 -0.13,63.35 -9.82,-0.02 z"
       id="path7" />
    <path
       class="cls-1"
       d="m 496.77,305.82 c -3.68,0 -6.32,-1 -7.91,-2.96 -1.59,-1.97 -2.59,-4.43 -2.99,-7.37 h -0.61 c -1.4,3.92 -3.7,6.86 -6.89,8.82 -3.2,1.96 -7,2.93 -11.42,2.92 -6.71,-0.01 -11.93,-1.74 -15.64,-5.19 -3.72,-3.44 -5.57,-8.11 -5.56,-14.01 0.01,-5.97 2.21,-10.55 6.6,-13.74 4.39,-3.19 11.2,-4.76 20.45,-4.75 l 12.52,0.03 v -6.26 c 0.02,-4.5 -1.2,-7.94 -3.65,-10.32 -2.45,-2.38 -6.21,-3.57 -11.29,-3.58 -3.85,0 -7.06,0.84 -9.64,2.56 -2.58,1.71 -4.74,4 -6.46,6.86 l -5.88,-5.54 c 1.73,-3.44 4.48,-6.35 8.24,-8.76 3.77,-2.4 8.52,-3.6 14.25,-3.59 7.69,0.01 13.67,1.91 17.91,5.67 4.25,3.76 6.37,9 6.35,15.69 l -0.07,34.79 h 7.24 c 0,0 -0.02,8.73 -0.02,8.73 z m -28.22,-6.94 c 2.45,0 4.7,-0.27 6.75,-0.85 2.05,-0.57 3.81,-1.38 5.28,-2.44 1.47,-1.06 2.62,-2.28 3.44,-3.67 0.82,-1.39 1.23,-2.9 1.24,-4.54 l 0.02,-10.44 -13.02,-0.03 c -5.65,-0.01 -9.76,0.8 -12.35,2.43 -2.58,1.63 -3.88,4 -3.88,7.11 v 2.58 c -0.01,3.11 1.11,5.53 3.36,7.25 2.25,1.72 5.29,2.59 9.14,2.6 z"
       id="path8" />
    <path
       class="cls-1"
       d="m 513.85,305.85 0.13,-63.35 9.82,0.02 -0.02,10.19 h 0.49 c 1.56,-3.56 3.76,-6.39 6.59,-8.49 2.83,-2.1 6.62,-3.15 11.36,-3.14 6.55,0.01 11.72,2.13 15.52,6.35 3.8,4.23 5.69,10.19 5.67,17.88 l -0.08,40.64 -9.82,-0.02 0.08,-39 c 0.02,-11.4 -4.75,-17.12 -14.33,-17.14 -1.96,0 -3.87,0.24 -5.71,0.73 -1.84,0.49 -3.5,1.23 -4.98,2.21 -1.48,0.98 -2.65,2.23 -3.51,3.74 -0.86,1.52 -1.29,3.3 -1.3,5.35 l -0.09,44.05 z"
       id="path9" />
    <path
       class="cls-1"
       d="m 64.31,443.03 -8.54,-25.31 -34.62,-0.07 -8.65,25.27 -10.43,-0.02 30.14,-85.63 13.13,0.03 29.78,85.76 -10.8,-0.02 z M 38.81,366.86 H 38.2 c 0,0 -14.58,41.71 -14.58,41.71 l 29.59,0.06 z"
       id="path10" />
    <path
       class="cls-1"
       d="m 86.08,443.08 0.02,-8.59 12.03,0.03 0.14,-68.51 -12.03,-0.03 0.02,-8.59 34.38,0.07 -0.02,8.59 -12.03,-0.02 -0.14,68.51 12.03,0.02 -0.02,8.59 z"
       id="path11" />
    <path
       class="cls-1"
       d="m 198.41,444.79 c -10.89,-0.02 -19.35,-3.74 -25.39,-11.17 -6.04,-7.42 -9.05,-18.33 -9.02,-32.74 0.03,-14.41 3.08,-25.47 9.16,-33.19 6.07,-7.72 14.55,-11.57 25.44,-11.55 7.2,0.01 13.23,1.65 18.1,4.89 4.86,3.24 8.64,7.86 11.33,13.84 l -8.36,5.01 c -1.71,-4.42 -4.32,-7.97 -7.84,-10.64 -3.51,-2.66 -7.93,-4 -13.25,-4.02 -3.68,0 -6.98,0.68 -9.89,2.07 -2.91,1.39 -5.37,3.38 -7.38,5.96 -2.01,2.58 -3.56,5.66 -4.63,9.23 -1.07,3.57 -1.61,7.57 -1.62,12.01 l -0.03,12.81 c -0.02,8.87 2.01,15.81 6.1,20.84 4.08,5.02 9.85,7.54 17.3,7.55 5.48,0.01 10.07,-1.39 13.76,-4.21 3.69,-2.81 6.4,-6.56 8.13,-11.22 l 8.21,5.17 c -2.71,6.05 -6.61,10.79 -11.69,14.22 -5.08,3.43 -11.23,5.13 -18.43,5.12 z"
       id="path12" />
    <path
       class="cls-1"
       d="m 251.64,443.43 c -3.44,0 -6.03,-0.97 -7.79,-2.9 -1.76,-1.93 -2.63,-4.36 -2.62,-7.31 l 0.17,-80.67 9.82,0.02 -0.17,82.14 9.33,0.02 -0.02,8.72 z"
       id="path13" />
    <path
       class="cls-1"
       d="m 295.71,444.99 c -4.26,0 -8.14,-0.79 -11.66,-2.36 -3.52,-1.56 -6.52,-3.8 -9.01,-6.71 -2.49,-2.91 -4.43,-6.39 -5.81,-10.45 -1.38,-4.06 -2.07,-8.62 -2.06,-13.7 0,-4.99 0.72,-9.53 2.12,-13.62 1.4,-4.09 3.35,-7.58 5.85,-10.49 2.5,-2.9 5.51,-5.12 9.04,-6.67 3.52,-1.55 7.41,-2.32 11.67,-2.31 4.26,0.01 8.12,0.8 11.6,2.36 3.47,1.56 6.48,3.8 9.01,6.71 2.53,2.91 4.49,6.41 5.87,10.51 1.38,4.1 2.07,8.64 2.06,13.63 0,5.08 -0.72,9.64 -2.12,13.69 -1.4,4.05 -3.37,7.52 -5.91,10.42 -2.54,2.9 -5.56,5.13 -9.04,6.67 -3.48,1.55 -7.35,2.32 -11.61,2.31 z m 0.02,-8.72 c 5.32,0.01 9.66,-1.62 13.02,-4.88 3.36,-3.27 5.05,-8.26 5.07,-14.97 l 0.02,-9.09 c 0.01,-6.71 -1.65,-11.71 -5,-14.99 -3.35,-3.28 -7.69,-4.92 -13,-4.94 -5.32,0 -9.66,1.62 -13.02,4.88 -3.37,3.27 -5.05,8.26 -5.07,14.97 l -0.02,9.09 c -0.01,6.71 1.65,11.71 5,14.99 3.35,3.28 7.68,4.93 13.01,4.94 z"
       id="path14" />
    <path
       class="cls-1"
       d="m 375.05,433.49 h -0.49 c -0.66,1.46 -1.46,2.9 -2.4,4.31 -0.94,1.41 -2.11,2.67 -3.51,3.76 -1.39,1.09 -3.07,1.95 -5.04,2.6 -1.97,0.64 -4.26,0.96 -6.88,0.96 -6.55,-0.01 -11.74,-2.13 -15.58,-6.35 -3.84,-4.22 -5.75,-10.18 -5.73,-17.88 l 0.09,-40.64 9.82,0.02 -0.08,39.01 c -0.02,11.4 4.79,17.12 14.45,17.13 1.96,0 3.87,-0.24 5.71,-0.73 1.84,-0.49 3.48,-1.22 4.92,-2.2 1.43,-0.98 2.58,-2.23 3.44,-3.75 0.86,-1.51 1.3,-3.34 1.3,-5.47 l 0.09,-43.93 9.82,0.02 -0.13,63.35 -9.82,-0.02 0.02,-10.2 z"
       id="path15" />
    <path
       class="cls-1"
       d="m 444.04,433.64 h -0.49 c -3.87,7.77 -10.05,11.65 -18.57,11.63 -3.93,0 -7.48,-0.79 -10.67,-2.35 -3.19,-1.56 -5.91,-3.78 -8.15,-6.65 -2.25,-2.87 -3.96,-6.35 -5.13,-10.45 -1.18,-4.09 -1.76,-8.68 -1.75,-13.76 0.01,-5.07 0.61,-9.65 1.81,-13.75 1.19,-4.09 2.92,-7.57 5.18,-10.43 2.26,-2.86 4.98,-5.06 8.18,-6.61 3.2,-1.55 6.76,-2.32 10.69,-2.31 4.42,0 8.2,0.97 11.35,2.88 3.15,1.91 5.53,4.85 7.16,8.83 h 0.49 l 0.08,-37.7 9.82,0.02 -0.19,90.85 -9.82,-0.02 0.02,-10.19 z m -16.34,2.92 c 2.21,0 4.32,-0.28 6.32,-0.85 2.01,-0.57 3.75,-1.41 5.22,-2.52 1.48,-1.11 2.65,-2.46 3.51,-4.06 0.86,-1.6 1.29,-3.43 1.3,-5.49 l 0.05,-23.69 c 0,-1.73 -0.42,-3.35 -1.28,-4.88 -0.86,-1.52 -2.02,-2.82 -3.49,-3.89 -1.47,-1.07 -3.21,-1.92 -5.21,-2.54 -2.01,-0.62 -4.11,-0.94 -6.32,-0.94 -5.57,-0.01 -9.95,1.73 -13.15,5.22 -3.2,3.49 -4.8,8.08 -4.82,13.75 l -0.02,10.86 c -0.01,5.68 1.57,10.27 4.76,13.77 3.18,3.5 7.56,5.26 13.13,5.27 z"
       id="path16" />
  </g>
  <path
     class="cls-1"
     d="m 95.76858,36.599911 h -2.186731 c 0,-18.976907 -13.583564,-34.4131799 -30.28244,-34.4131799 -4.362329,0 -8.513109,1.053283 -12.265291,2.9505279 9.510722,6.390956 15.894997,18.10177 15.894997,31.464879 h -2.186731 c 0,-13.046902 -6.422131,-24.421467 -15.863821,-30.255719 -9.439464,5.834252 -15.863822,17.208817 -15.863822,30.255719 H 30.82801 c 0,-13.360883 6.384275,-25.073923 15.894997,-31.464879 C 42.970826,3.2422409 38.822272,2.1867311 34.457717,2.1867311 17.763294,2.1867311 4.1797295,17.625231 4.1797295,36.599911 H 1.9929983 C 1.9929983,16.418298 16.55636,0 34.46217,0 39.637285,0 44.534049,1.3717173 48.880789,3.8100784 53.22753,1.3717173 58.124293,0 63.299409,0 81.202991,0 95.76858,16.418298 95.76858,36.599911 Z"
     id="path17" />
</svg>
