<?xml version="1.0" encoding="utf-8"?>
<!-- Generator: Adobe Illustrator 16.0.0, SVG Export Plug-In . SVG Version: 6.00 Build 0)  -->
<!DOCTYPE svg PUBLIC "-//W3C//DTD SVG 1.1//EN" "http://www.w3.org/Graphics/SVG/1.1/DTD/svg11.dtd">
<svg version="1.1" id="Layer_1" xmlns="http://www.w3.org/2000/svg" xmlns:xlink="http://www.w3.org/1999/xlink" x="0px" y="0px"
	 width="204.061px" height="35px" viewBox="0 0 204.061 35" enable-background="new 0 0 204.061 35" xml:space="preserve">
<g>
	<g id="XMLID_1_">
		<g>
			<path fill="#00C1C1" d="M86.11,14.933c5.051,0.545,8.986,4.816,8.986,10.015c0,2.78-1.125,5.299-2.95,7.12
				c-1.817,1.824-4.339,2.951-7.122,2.951H48.962v-0.043c-5.157-0.444-9.2-4.763-9.2-10.028c0-0.292,0.012-0.585,0.038-0.872h16.11
				L55.887,9.307l16.646,20.236V12.805l3.979,3.775L86.11,14.933z"/>
		</g>
	</g>
	<g id="XMLID_2_">
		<g>
			<path fill="#B9EEEE" d="M84.143,13.589l-7.093,1.216l-6.178-5.858v15.968L54.218,4.671l0.031,17.749H40.08
				c0.881-3.393,3.48-6.086,6.811-7.105c-0.152-0.784-0.229-1.602-0.229-2.438c0-7.122,5.772-12.897,12.896-12.897
				c4.837,0,9.048,2.662,11.257,6.603c1.247-0.628,2.654-0.979,4.147-0.979C79.64,5.603,83.517,9.077,84.143,13.589z"/>
		</g>
	</g>
</g>
<g>
	<path fill="#00C1C1" d="M108.242,27.189V10.767h0.354l10.93,12.588V10.767h1.617v16.422h-0.368l-10.84-12.438v12.438H108.242
		L108.242,27.189z"/>
	<path fill="#00C1C1" d="M125.232,10.767h3.272c1.822,0,3.059,0.074,3.706,0.223c0.974,0.224,1.767,0.702,2.377,1.436
		c0.607,0.734,0.915,1.638,0.915,2.711c0,0.895-0.209,1.68-0.63,2.359c-0.42,0.677-1.021,1.189-1.806,1.535
		c-0.778,0.348-1.857,0.525-3.234,0.531l5.902,7.627h-2.026l-5.907-7.627h-0.928v7.627h-1.645L125.232,10.767L125.232,10.767z
		 M126.874,12.374v5.582l2.829,0.023c1.096,0,1.903-0.105,2.433-0.313c0.525-0.209,0.936-0.542,1.23-1.001
		c0.295-0.458,0.438-0.968,0.438-1.534c0-0.55-0.146-1.052-0.448-1.5c-0.298-0.451-0.688-0.773-1.173-0.966
		c-0.482-0.194-1.291-0.291-2.416-0.291H126.874z"/>
	<path fill="#00C1C1" d="M139.031,10.767h9.412v1.607h-7.771v5.146h7.703v1.607h-7.703v6.452h7.703v1.608h-9.344L139.031,10.767
		L139.031,10.767z"/>
	<path fill="#00C1C1" d="M166.574,13.814l-1.299,0.995c-0.715-0.93-1.569-1.635-2.57-2.117c-1-0.478-2.104-0.72-3.302-0.72
		c-1.311,0-2.521,0.316-3.639,0.944c-1.118,0.629-1.979,1.473-2.597,2.534c-0.614,1.061-0.921,2.253-0.921,3.579
		c0,2,0.688,3.672,2.061,5.013c1.372,1.339,3.104,2.009,5.196,2.009c2.3,0,4.224-0.9,5.771-2.701l1.296,0.981
		c-0.817,1.043-1.841,1.849-3.063,2.418c-1.225,0.567-2.592,0.854-4.104,0.854c-2.87,0-5.139-0.957-6.799-2.869
		c-1.393-1.615-2.089-3.564-2.089-5.853c0-2.404,0.844-4.428,2.529-6.068c1.686-1.641,3.798-2.461,6.336-2.461
		c1.533,0,2.918,0.303,4.153,0.91C164.771,11.87,165.784,12.721,166.574,13.814z"/>
</g>
</svg>
